<?xml version="1.0" encoding="UTF-8" standalone="no"?>
<!-- Created with Inkscape (http://www.inkscape.org/) -->

<svg
   version="1.1"
   id="svg2"
   width="793.70135"
   height="1122.52"
   viewBox="0 0 793.70135 1122.52"
   sodipodi:docname="logo.kfu.6.ai"
   xmlns:inkscape="http://www.inkscape.org/namespaces/inkscape"
   xmlns:sodipodi="http://sodipodi.sourceforge.net/DTD/sodipodi-0.dtd"
   xmlns="http://www.w3.org/2000/svg"
   xmlns:svg="http://www.w3.org/2000/svg">
  <defs
     id="defs6">
    <clipPath
       clipPathUnits="userSpaceOnUse"
       id="clipPath16">
      <path
         d="M 0,841.89 H 595.276 V 0 H 0 Z"
         id="path14" />
    </clipPath>
  </defs>
  <sodipodi:namedview
     id="namedview4"
     pagecolor="#ffffff"
     bordercolor="#000000"
     borderopacity="0.25"
     inkscape:showpageshadow="2"
     inkscape:pageopacity="0.0"
     inkscape:pagecheckerboard="0"
     inkscape:deskcolor="#d1d1d1" />
  <g
     id="g8"
     inkscape:groupmode="layer"
     inkscape:label="logo.kfu.6"
     transform="matrix(1.3333333,0,0,-1.3333333,0,1122.52)">
    <g
       id="g10">
      <g
         id="g12"
         clip-path="url(#clipPath16)">
        <g
           id="g18"
           transform="translate(188.5936,574.5527)">
          <path
             d="m 0,0 h 231.283 v -181.826 h -0.003 l 0.003,-0.277 c 0.619,-44.45 -51.785,-96.238 -115.641,-96.238 C 51.785,-278.341 0,-229.356 0,-182.103 l 0.003,0.277 H 0 Z"
             style="fill:#005b9f;fill-opacity:1;fill-rule:evenodd;stroke:none"
             id="path20" />
        </g>
        <g
           id="g22"
           transform="translate(222.6997,477.5272)">
          <path
             d="m 0,0 c 2.355,-0.562 4.491,-1.7 6.247,-3.25 l 17.772,-10.67 3.896,-14.434 h 1.829 C 31.609,-4.191 51.492,14.925 75.972,15.59 L 75.02,17.975 50.413,17.86 45.453,30.858 C 55.602,29.714 76.691,16.116 69.972,33.921 H 44.344 L 39.73,46.34 c 12.986,0.106 27.614,1.801 40.43,0 l 1.622,-0.271 c 13.707,-2.706 24.049,-14.441 24.049,-29.293 0,-10.87 -6.221,-22.947 -15.319,-29.371 v -1.365 c 12.175,2.794 26.093,12.985 27.34,18.711 -1.781,0.695 -6.058,3.152 -6.005,3.444 -4.766,3.419 -6.81,10.232 -5.686,15.393 1.123,5.162 3.525,7.656 6.955,9.735 2.363,1.197 4.501,1.923 7.063,2.178 l 64.065,9.037 c 0.301,-2.166 0.511,-4.37 0.615,-6.564 1.856,-39.184 -28.419,-72.468 -67.604,-74.323 -13.4,-0.635 -30.684,6.781 -36.768,19.448 -0.317,-0.054 -0.637,-0.106 -0.958,-0.147 -2.329,-0.257 -4.494,-0.655 -6.509,-1.175 -2.046,-8.518 15.387,-15.139 35.594,-18.389 l -3.237,-4.686 c 3.824,1.206 7.893,1.858 12.113,1.858 22.213,0 40.227,-18.013 40.227,-40.227 0,-22.213 -18.014,-40.226 -40.227,-40.226 -22.211,0 -40.225,18.013 -40.225,40.226 0,2.282 0.194,4.52 0.558,6.697 l 1.376,-0.202 24.352,-1.653 c -1.209,-1.978 -1.908,-4.302 -1.908,-6.79 0,-7.198 5.839,-13.037 13.037,-13.037 7.198,0 13.035,5.839 13.035,13.037 0,7.084 -5.653,12.849 -12.693,13.031 l -0.043,0.128 -1.6,-0.189 c -0.157,-0.015 -0.316,-0.035 -0.473,-0.054 l -20.977,-2.464 c -9.16,-1.505 -17.092,-2.11 -23.858,-1.892 l -29.019,-39.585 -3.628,9.61 c -20.513,1.723 -13.414,-7.768 -8.818,-11.651 0.449,-0.378 0.454,-1.964 0.028,-2.311 -7.535,0.576 -14.118,6.621 -14.118,14.493 0,7.871 6.539,14.597 14.599,14.597 5.382,0 10.08,-2.911 12.612,-7.243 l 13.177,41.555 h -2.085 l -7.973,-11.46 c -4.701,4.909 -8.365,10.819 -10.635,17.379 L 9.943,-20.099 c -0.944,-2.135 -2.392,-3.998 -4.184,-5.448 l -4.443,11.77 c -9.846,0.488 -15.921,-1.889 -10.82,-9.372 l 2.135,-0.025 -0.278,3.697 h 6.18 l -0.975,-12.932 0.007,-0.094 h -0.014 l -0.016,-0.232 h -4.231 l -0.018,0.862 -0.312,4.158 c -5.633,2.012 -10.966,6.45 -10.966,13.521 0,5.444 3.689,10.944 8.942,13.343 l -2.854,37.896 -6.905,8.757 h 11.675 c -0.438,4.852 1.061,10.104 3.913,14.341 -2.587,-0.438 -4.977,-1.825 -7.287,-5.666 -1.526,8.323 5.456,19.025 14.97,17.426 9.552,-1.608 8.664,1.157 13.684,4.903 -0.359,-3.101 -0.415,-6.22 -1.101,-8.91 9.842,-1.07 9.393,2.527 15.722,7.247 C 31.637,65.372 32.679,55.489 20.69,52.69 9.76,50.138 1.594,56.528 -5.892,45.802 H -4.563 9.678 L 2.793,37.069 Z m 61.761,68.914 h 6.337 V 67.391 H 70.1 v -4.925 c -1.283,-0.528 -2.186,-1.792 -2.186,-3.266 0,-1.564 1.015,-2.886 2.422,-3.352 l 0.021,-0.007 0.055,-0.019 0.011,-0.002 0.034,-0.01 h 0.002 l 0.038,-0.011 h 0.002 l 0.02,-0.006 0.061,-0.017 h 0.001 l 0.02,-0.004 0.022,-0.005 0.021,-0.006 h 0.003 l 0.017,-0.005 0.022,-0.004 0.021,-0.004 0.038,-0.008 0.004,-0.002 0.02,-0.004 0.022,-0.003 0.021,-0.004 0.007,-10e-4 0.056,-0.01 0.021,-0.003 0.01,-0.002 h 10e-4 l 0.027,-0.004 h 0.006 l 0.021,-0.003 0.022,-0.004 0.011,-0.002 0.011,-10e-4 0.021,-0.003 0.022,-0.002 0.038,-0.004 0.027,-0.002 0.022,-0.003 0.022,-10e-4 0.043,-0.004 0.022,-10e-4 h 0.001 l 0.039,-0.003 h 0.005 l 0.086,-0.002 h 0.003 l 0.038,-0.002 h 0.006 0.022 l 0.022,-0.001 c 1.951,0 3.531,1.581 3.531,3.531 l -10e-4,0.067 -0.001,0.024 -0.002,0.063 -0.004,0.065 c -0.002,0.04 -0.005,0.081 -0.009,0.121 l -0.005,0.048 -0.001,0.006 -0.006,0.056 -0.001,0.009 c -0.01,0.075 -0.022,0.149 -0.037,0.222 l -0.006,0.032 -0.014,0.063 v 0.004 l -0.03,0.12 -0.017,0.061 -10e-4,0.006 -0.021,0.071 -0.003,0.012 -0.011,0.031 c -0.174,0.542 -0.472,1.024 -0.864,1.415 l -0.006,0.005 -0.044,0.044 -0.044,0.041 v 10e-4 l -0.03,0.026 -0.017,0.016 -0.045,0.041 h -10e-4 l -0.046,0.04 -0.019,0.015 -10e-4,0.001 -0.063,0.05 -0.002,0.002 -0.012,0.009 c -0.038,0.03 -0.077,0.06 -0.117,0.089 l -0.007,0.005 -0.025,0.017 -0.044,0.03 -0.008,0.004 -0.05,0.035 -0.014,0.008 -0.011,0.008 c -0.044,0.028 -0.089,0.054 -0.134,0.08 v 0.001 c -0.05,0.028 -0.099,0.055 -0.15,0.08 l -0.015,0.009 -0.056,0.027 -0.006,0.002 -0.05,0.024 v 0.918 c 0,2.906 2.557,6.723 5.464,6.801 L 83.78,70.27 76.073,50.096 54.029,50.021 46.338,70.195 51.46,70.125 c 2.908,-0.038 5.464,-3.895 5.464,-6.801 V 62.402 C 56.21,62.069 55.628,61.506 55.271,60.808 L 55.267,60.8 55.239,60.745 55.233,60.731 55.198,60.657 55.197,60.653 55.187,60.631 55.162,60.575 55.138,60.516 55.13,60.495 55.129,60.492 55.1,60.416 55.099,60.414 55.094,60.399 55.073,60.34 55.07,60.333 c -0.046,-0.137 -0.084,-0.277 -0.114,-0.421 -0.023,-0.113 -0.04,-0.227 -0.052,-0.343 L 54.903,59.555 C 54.897,59.503 54.893,59.451 54.89,59.398 L 54.889,59.381 V 59.363 L 54.886,59.291 54.885,59.267 54.884,59.2 c 0,-1.95 1.58,-3.531 3.53,-3.531 l 0.023,0.001 h 0.022 0.006 l 0.038,0.002 h 0.003 l 0.086,0.002 h 0.004 l 0.04,0.003 v 0 l 0.023,10e-4 0.043,0.004 0.022,10e-4 0.022,0.003 0.027,0.002 0.038,0.004 0.022,0.002 0.022,0.003 0.01,10e-4 0.011,0.002 0.022,0.004 0.021,0.003 0.021,0.002 0.013,0.002 0.009,0.002 0.021,0.003 0.021,0.003 0.036,0.007 0.007,10e-4 0.02,0.004 0.022,0.003 0.021,0.004 0.002,10e-4 0.04,0.009 0.022,0.004 0.02,0.004 0.019,0.005 0.126,0.032 0.022,0.006 c 1.49,0.413 2.584,1.779 2.584,3.401 0,1.474 -0.903,2.738 -2.186,3.266 v 4.925 h 2.002 z M 150.262,-52.79 c 17.006,6.896 32.797,18.421 36.401,47.137 -3.355,-14.178 -10.719,-22.022 -19.953,-26.37 -9.877,-4.649 -21.89,-5.299 -33.418,-5.417 7.788,-3.361 13.051,-8.192 16.97,-15.35"
             style="fill:#ffffff;fill-opacity:1;fill-rule:evenodd;stroke:none"
             id="path24" />
        </g>
        <g
           id="g26"
           transform="translate(269.7106,506.7914)">
          <path
             d="m 0,0 c -8.114,5.497 -11.13,-0.999 -18.602,-2.548 -7.837,-1.625 -9.923,4.489 -13.26,9.943 5.519,-1.159 5.84,-3.755 13.036,1.175 C -11.658,13.478 -1.904,7.376 0,0"
             style="fill:#ffffff;fill-opacity:1;fill-rule:evenodd;stroke:none"
             id="path28" />
        </g>
        <g
           id="g30"
           transform="translate(271.1412,327.1014)">
          <path
             d="M 0,0 H 3.392 V 9.639 L 3.758,11.298 2.587,9.859 0.415,8.37 -0.927,10.2 4.637,14.69 H 6.418 V 0 H 9.737 V -2.684 H 0 Z m 17.719,1.489 c 0,0.569 0.073,1.077 0.22,1.525 0.146,0.447 0.353,0.854 0.622,1.219 0.268,0.367 0.586,0.696 0.951,0.989 0.367,0.293 0.761,0.561 1.184,0.806 -0.797,0.504 -1.423,1.085 -1.879,1.744 -0.455,0.659 -0.683,1.477 -0.683,2.453 0,0.634 0.118,1.228 0.354,1.781 0.236,0.554 0.577,1.033 1.024,1.44 0.448,0.407 0.989,0.724 1.623,0.952 0.635,0.227 1.351,0.341 2.148,0.341 0.732,0 1.399,-0.098 2,-0.293 0.603,-0.195 1.119,-0.471 1.55,-0.829 0.432,-0.358 0.765,-0.794 1.001,-1.306 0.236,-0.512 0.354,-1.078 0.354,-1.696 0,-0.96 -0.216,-1.773 -0.647,-2.44 C 27.11,7.508 26.48,6.898 25.65,6.344 26.626,5.775 27.362,5.149 27.858,4.466 28.355,3.782 28.603,2.904 28.603,1.83 c 0,-0.732 -0.134,-1.395 -0.403,-1.989 -0.268,-0.594 -0.646,-1.102 -1.135,-1.525 -0.488,-0.423 -1.073,-0.752 -1.757,-0.988 -0.683,-0.236 -1.431,-0.354 -2.245,-0.354 -0.813,0 -1.549,0.11 -2.208,0.329 -0.659,0.22 -1.22,0.525 -1.684,0.916 -0.463,0.39 -0.821,0.862 -1.074,1.415 -0.252,0.553 -0.378,1.171 -0.378,1.855 m 7.858,0.317 c 0,0.374 -0.09,0.716 -0.269,1.025 -0.179,0.309 -0.41,0.589 -0.695,0.841 -0.285,0.252 -0.602,0.485 -0.952,0.696 -0.35,0.211 -0.704,0.415 -1.062,0.61 C 21.835,4.539 21.311,4.063 21.026,3.55 20.741,3.038 20.599,2.529 20.599,2.025 c 0,-0.651 0.223,-1.207 0.671,-1.671 0.447,-0.464 1.069,-0.696 1.866,-0.696 0.732,0 1.322,0.179 1.769,0.537 0.448,0.358 0.672,0.895 0.672,1.611 m -4.417,8.37 c 0,-0.391 0.073,-0.732 0.22,-1.025 0.146,-0.293 0.345,-0.549 0.597,-0.769 0.253,-0.22 0.537,-0.423 0.854,-0.61 0.318,-0.187 0.647,-0.362 0.989,-0.525 0.976,0.83 1.463,1.741 1.463,2.734 0,0.683 -0.198,1.199 -0.597,1.549 -0.398,0.35 -0.883,0.525 -1.452,0.525 -0.716,0 -1.24,-0.187 -1.574,-0.561 -0.334,-0.374 -0.5,-0.814 -0.5,-1.318 M 35.902,5.881 c 0,2.993 0.512,5.218 1.537,6.674 1.025,1.456 2.497,2.184 4.417,2.184 2.05,0 3.555,-0.72 4.515,-2.159 0.959,-1.44 1.439,-3.673 1.439,-6.699 0,-3.01 -0.516,-5.247 -1.549,-6.711 -1.033,-1.464 -2.51,-2.196 -4.429,-2.196 -2.034,0 -3.531,0.769 -4.491,2.306 -0.959,1.538 -1.439,3.738 -1.439,6.601 m 3.172,0 c 0,-1.985 0.216,-3.519 0.647,-4.6 0.431,-1.082 1.143,-1.623 2.135,-1.623 0.96,0 1.663,0.496 2.11,1.489 0.449,0.992 0.672,2.57 0.672,4.734 0,1.969 -0.212,3.489 -0.635,4.563 -0.422,1.074 -1.147,1.611 -2.171,1.611 -0.977,0 -1.68,-0.505 -2.111,-1.513 C 39.29,9.534 39.074,7.98 39.074,5.881 M 67.116,2.074 H 64.431 V -2.684 H 61.479 V 2.074 H 54.085 V 3.88 l 7.736,10.64 h 2.61 V 4.612 h 2.685 z m -5.637,6.272 0.22,2.049 h -0.098 l -0.83,-1.757 -2.538,-3.294 -1.22,-0.927 1.562,0.195 h 2.904 z"
             style="fill:#ffffff;fill-opacity:1;fill-rule:nonzero;stroke:none"
             id="path32" />
        </g>
      </g>
    </g>
  </g>
</svg>
